<svg width="66" height="65" viewBox="0 0 66 65" fill="none" xmlns="http://www.w3.org/2000/svg">
<path d="M29.7633 3.76244C30.7535 3.26032 31.8674 2.99683 33 2.99683C34.1326 2.99683 35.2465 3.26032 36.2367 3.76244L61.2867 16.4676C61.806 16.7313 62.2387 17.117 62.5399 17.5848C62.8412 18.0525 63 18.5853 63 19.1279V44.1942C62.9997 45.2798 62.6816 46.3456 62.0785 47.2811C61.4754 48.2166 60.6093 48.9879 59.57 49.5149L36.2367 61.3556C35.2465 61.8577 34.1326 62.1212 33 62.1212C31.8674 62.1212 30.7535 61.8577 29.7633 61.3556L6.43 49.5149C5.39118 48.9881 4.52544 48.2174 3.92238 47.2824C3.31932 46.3475 3.00088 45.2823 3 44.1973V19.1279C2.99998 18.5853 3.15881 18.0525 3.46005 17.5848C3.76129 17.117 4.19399 16.7313 4.71333 16.4676L29.7633 3.76244Z" stroke="#754E29" stroke-width="4.16667" stroke-linecap="round" stroke-linejoin="round"/>
<path d="M3 17.339L33 32.5584M33 32.5584L63 17.339M33 32.5584V62.9971" stroke="#754E29" stroke-width="4.16667" stroke-linejoin="round"/>
<path d="M18 24.9483L48 9.72888M13 33.5563L23 38.6457" stroke="#754E29" stroke-width="4.16667" stroke-linecap="round" stroke-linejoin="round"/>
</svg>
