<svg width="60" height="60" viewBox="0 0 60 60" fill="none" xmlns="http://www.w3.org/2000/svg">
<path d="M50.8861 16.4882C50.8876 18.0083 50.6759 19.5212 50.2572 20.984H55.1787C57.843 20.984 60 23.112 60 25.7376V40.4658C60 44.1272 58.9542 47.7145 56.9825 50.8165C55.0107 53.9184 52.1928 56.4093 48.852 58.0037C45.5111 59.598 41.7824 60.2313 38.0934 59.8308C34.4044 59.4304 30.9045 58.0124 27.9949 55.7395L24.3949 59.2882C24.1863 59.5091 23.9348 59.6862 23.6553 59.8091C23.3758 59.9319 23.0741 59.998 22.7682 60.0033C22.4622 60.0086 22.1583 59.9531 21.8746 59.8401C21.5909 59.727 21.3332 59.5587 21.1168 59.3453C20.9005 59.1318 20.7299 58.8775 20.6153 58.5976C20.5007 58.3177 20.4444 58.0179 20.4498 57.7161C20.4552 57.4143 20.5222 57.1166 20.6467 56.8409C20.7713 56.5651 20.9508 56.317 21.1747 56.1112L24.7716 52.5595C23.563 51.056 22.5864 49.3845 21.8734 47.5991C19.2248 48.1325 16.489 48.078 13.8644 47.4396C11.2397 46.8012 8.79186 45.5948 6.6981 43.9078C4.60435 42.2209 2.91712 40.0956 1.75864 37.686C0.600168 35.2763 -0.000551374 32.6426 3.7974e-07 29.9756V16.5302C3.7974e-07 14.0245 2.05975 11.9924 4.59949 11.9924H18.0972C19.0902 8.54012 21.1976 5.5016 24.0996 3.33796C27.0016 1.17432 30.5398 0.00367141 34.1772 0.00366211H46.5114C48.9266 0.00366211 50.8861 1.93685 50.8861 4.31963V16.4882ZM22.6997 12.5379C25.2213 13.1695 27.5771 14.3251 29.6094 15.9274C31.6417 17.5298 33.3037 19.542 34.4841 21.8292C36.3541 21.2673 38.2983 20.9825 40.2532 20.984H45.4481C46.0318 19.5552 46.3309 18.0288 46.3291 16.4882V4.49946H34.1772C31.6553 4.49948 29.1959 5.2732 27.1395 6.71343C25.0831 8.15367 23.5315 10.1891 22.6997 12.5379ZM31.2456 52.5325C33.5079 54.1763 36.1881 55.1688 38.988 55.3997C41.7879 55.6306 44.5979 55.0908 47.1054 53.8403C49.613 52.5898 51.7199 50.6777 53.1918 48.3166C54.6637 45.9554 55.443 43.2378 55.443 40.4658V25.7376C55.443 25.7037 55.4363 25.6702 55.4231 25.639C55.41 25.6077 55.3908 25.5793 55.3665 25.5553C55.3423 25.5314 55.3134 25.5124 55.2818 25.4995C55.2501 25.4865 55.2161 25.4798 55.1818 25.4798H40.2532C37.4435 25.4798 34.6889 26.2487 32.2956 27.7008C29.9023 29.153 27.9642 31.2316 26.6967 33.7055C25.4292 36.1794 24.8821 38.9516 25.1161 41.714C25.3501 44.4763 26.3561 47.1205 28.0223 49.3525L40.9215 36.6294C41.1301 36.4086 41.3817 36.2314 41.6611 36.1085C41.9406 35.9857 42.2424 35.9196 42.5483 35.9143C42.8542 35.909 43.1581 35.9645 43.4418 36.0775C43.7255 36.1906 43.9832 36.3589 44.1996 36.5723C44.416 36.7858 44.5865 37.0401 44.7011 37.32C44.8157 37.5999 44.872 37.8997 44.8666 38.2015C44.8612 38.5033 44.7942 38.801 44.6697 39.0767C44.5452 39.3525 44.3656 39.6006 44.1418 39.8064L31.2456 52.5325ZM20.5063 40.4658C20.5063 38.6915 20.7494 36.9711 21.199 35.3376L12.8203 27.0683C12.5964 26.8626 12.4168 26.6144 12.2923 26.3386C12.1678 26.0629 12.1008 25.7652 12.0954 25.4634C12.09 25.1616 12.1463 24.8618 12.2609 24.5819C12.3755 24.302 12.5461 24.0477 12.7624 23.8343C12.9788 23.6208 13.2365 23.4525 13.5202 23.3395C13.8039 23.2264 14.1078 23.1709 14.4137 23.1762C14.7197 23.1815 15.0214 23.2476 15.3009 23.3705C15.5804 23.4933 15.8319 23.6705 16.0405 23.8913L23.0825 30.8358C24.8062 27.8534 27.2944 25.3707 30.2977 23.6366C29.1322 21.4771 27.3933 19.671 25.2671 18.4118C23.141 17.1526 20.7077 16.4877 18.2278 16.4882H4.5843L4.56911 16.5002C4.56542 16.5048 4.56235 16.5098 4.56 16.5152L4.55696 16.5302V29.9756C4.55669 31.9541 4.99764 33.9085 5.84854 35.7001C6.69943 37.4917 7.93944 39.0766 9.48063 40.3426C11.0218 41.6085 12.8264 42.5244 14.7665 43.0254C16.7066 43.5263 18.7346 43.6 20.7068 43.2412C20.5736 42.3219 20.5066 41.3945 20.5063 40.4658Z" fill="#754E29"/>
</svg>
