<svg width="60" height="61" viewBox="0 0 60 61" fill="none" xmlns="http://www.w3.org/2000/svg">
<path d="M30 0.505371C13.458 0.505371 0 13.9634 0 30.5054V42.9344C0 46.0064 2.691 48.5054 6 48.5054H9C9.79565 48.5054 10.5587 48.1893 11.1213 47.6267C11.6839 47.0641 12 46.301 12 45.5054V30.0764C12 29.2807 11.6839 28.5177 11.1213 27.955C10.5587 27.3924 9.79565 27.0764 9 27.0764H6.276C7.944 15.4664 17.934 6.50537 30 6.50537C42.066 6.50537 52.056 15.4664 53.724 27.0764H51C50.2043 27.0764 49.4413 27.3924 48.8787 27.955C48.3161 28.5177 48 29.2807 48 30.0764V48.5054C48 51.8144 45.309 54.5054 42 54.5054H36V51.5054H24V60.5054H42C48.618 60.5054 54 55.1234 54 48.5054C57.309 48.5054 60 46.0064 60 42.9344V30.5054C60 13.9634 46.542 0.505371 30 0.505371Z" fill="#754E29"/>
</svg>
